<?xml version="1.0" encoding="utf-8" standalone="no"?>
<!DOCTYPE svg PUBLIC "-//W3C//DTD SVG 1.1//EN"
  "http://www.w3.org/Graphics/SVG/1.1/DTD/svg11.dtd">
<svg xmlns:xlink="http://www.w3.org/1999/xlink" width="720pt" height="432pt" viewBox="0 0 720 432" xmlns="http://www.w3.org/2000/svg" version="1.1">
 <metadata>
  <rdf:RDF xmlns:dc="http://purl.org/dc/elements/1.1/" xmlns:cc="http://creativecommons.org/ns#" xmlns:rdf="http://www.w3.org/1999/02/22-rdf-syntax-ns#">
   <cc:Work>
    <dc:type rdf:resource="http://purl.org/dc/dcmitype/StillImage"/>
    <dc:date>2026-06-19T14:40:51.276525</dc:date>
    <dc:format>image/svg+xml</dc:format>
    <dc:creator>
     <cc:Agent>
      <dc:title>Matplotlib v3.11.0, https://matplotlib.org/</dc:title>
     </cc:Agent>
    </dc:creator>
   </cc:Work>
  </rdf:RDF>
 </metadata>
 <defs>
  <style type="text/css">*{stroke-linejoin: round; stroke-linecap: butt}</style>
 </defs>
 <g id="figure_1">
  <g id="patch_1">
   <path d="M 0 432 
L 720 432 
L 720 0 
L 0 0 
z
" style="fill: #262c33"/>
  </g>
  <g id="axes_1">
   <g id="patch_2">
    <path d="M 43.72 403.877656 
L 709.2 403.877656 
L 709.2 26.16 
L 43.72 26.16 
z
" style="fill: #262c33"/>
   </g>
   <g id="patch_3">
    <path d="M 73.969091 403.877656 
L 157.414859 403.877656 
L 157.414859 403.463934 
L 73.969091 403.463934 
z
" clip-path="url(#pc0b85cf45f)" style="fill: #1f77b4"/>
   </g>
   <g id="patch_4">
    <path d="M 178.276301 403.877656 
L 261.722069 403.877656 
L 261.722069 403.877656 
L 178.276301 403.877656 
z
" clip-path="url(#pc0b85cf45f)" style="fill: #1f77b4"/>
   </g>
   <g id="patch_5">
    <path d="M 282.583511 403.877656 
L 366.029279 403.877656 
L 366.029279 403.670795 
L 282.583511 403.670795 
z
" clip-path="url(#pc0b85cf45f)" style="fill: #1f77b4"/>
   </g>
   <g id="patch_6">
    <path d="M 386.890721 403.877656 
L 470.336489 403.877656 
L 470.336489 403.877656 
L 386.890721 403.877656 
z
" clip-path="url(#pc0b85cf45f)" style="fill: #1f77b4"/>
   </g>
   <g id="patch_7">
    <path d="M 491.197931 403.877656 
L 574.643699 403.877656 
L 574.643699 403.877656 
L 491.197931 403.877656 
z
" clip-path="url(#pc0b85cf45f)" style="fill: #1f77b4"/>
   </g>
   <g id="patch_8">
    <path d="M 595.505141 403.877656 
L 678.950909 403.877656 
L 678.950909 403.877656 
L 595.505141 403.877656 
z
" clip-path="url(#pc0b85cf45f)" style="fill: #1f77b4"/>
   </g>
   <g id="patch_9">
    <path d="M 73.969091 403.463934 
L 157.414859 403.463934 
L 157.414859 397.051247 
L 73.969091 397.051247 
z
" clip-path="url(#pc0b85cf45f)" style="fill: #ff7f0e"/>
   </g>
   <g id="patch_10">
    <path d="M 178.276301 403.877656 
L 261.722069 403.877656 
L 261.722069 403.050213 
L 178.276301 403.050213 
z
" clip-path="url(#pc0b85cf45f)" style="fill: #ff7f0e"/>
   </g>
   <g id="patch_11">
    <path d="M 282.583511 403.670795 
L 366.029279 403.670795 
L 366.029279 400.774743 
L 282.583511 400.774743 
z
" clip-path="url(#pc0b85cf45f)" style="fill: #ff7f0e"/>
   </g>
   <g id="patch_12">
    <path d="M 386.890721 403.877656 
L 470.336489 403.877656 
L 470.336489 401.809047 
L 386.890721 401.809047 
z
" clip-path="url(#pc0b85cf45f)" style="fill: #ff7f0e"/>
   </g>
   <g id="patch_13">
    <path d="M 491.197931 403.877656 
L 574.643699 403.877656 
L 574.643699 403.463934 
L 491.197931 403.463934 
z
" clip-path="url(#pc0b85cf45f)" style="fill: #ff7f0e"/>
   </g>
   <g id="patch_14">
    <path d="M 595.505141 403.877656 
L 678.950909 403.877656 
L 678.950909 402.42963 
L 595.505141 402.42963 
z
" clip-path="url(#pc0b85cf45f)" style="fill: #ff7f0e"/>
   </g>
   <g id="patch_15">
    <path d="M 73.969091 397.051247 
L 157.414859 397.051247 
L 157.414859 396.844386 
L 73.969091 396.844386 
z
" clip-path="url(#pc0b85cf45f)" style="fill: #2ca02c"/>
   </g>
   <g id="patch_16">
    <path d="M 178.276301 403.050213 
L 261.722069 403.050213 
L 261.722069 400.981604 
L 178.276301 400.981604 
z
" clip-path="url(#pc0b85cf45f)" style="fill: #2ca02c"/>
   </g>
   <g id="patch_17">
    <path d="M 282.583511 400.774743 
L 366.029279 400.774743 
L 366.029279 398.912995 
L 282.583511 398.912995 
z
" clip-path="url(#pc0b85cf45f)" style="fill: #2ca02c"/>
   </g>
   <g id="patch_18">
    <path d="M 386.890721 401.809047 
L 470.336489 401.809047 
L 470.336489 401.188465 
L 386.890721 401.188465 
z
" clip-path="url(#pc0b85cf45f)" style="fill: #2ca02c"/>
   </g>
   <g id="patch_19">
    <path d="M 491.197931 403.463934 
L 574.643699 403.463934 
L 574.643699 403.050213 
L 491.197931 403.050213 
z
" clip-path="url(#pc0b85cf45f)" style="fill: #2ca02c"/>
   </g>
   <g id="patch_20">
    <path d="M 595.505141 402.42963 
L 678.950909 402.42963 
L 678.950909 402.015908 
L 595.505141 402.015908 
z
" clip-path="url(#pc0b85cf45f)" style="fill: #2ca02c"/>
   </g>
   <g id="patch_21">
    <path d="M 73.969091 396.844386 
L 157.414859 396.844386 
L 157.414859 367.470138 
L 73.969091 367.470138 
z
" clip-path="url(#pc0b85cf45f)" style="fill: #d62728"/>
   </g>
   <g id="patch_22">
    <path d="M 178.276301 400.981604 
L 261.722069 400.981604 
L 261.722069 398.499273 
L 178.276301 398.499273 
z
" clip-path="url(#pc0b85cf45f)" style="fill: #d62728"/>
   </g>
   <g id="patch_23">
    <path d="M 282.583511 398.912995 
L 366.029279 398.912995 
L 366.029279 395.810081 
L 282.583511 395.810081 
z
" clip-path="url(#pc0b85cf45f)" style="fill: #d62728"/>
   </g>
   <g id="patch_24">
    <path d="M 386.890721 401.188465 
L 470.336489 401.188465 
L 470.336489 399.947299 
L 386.890721 399.947299 
z
" clip-path="url(#pc0b85cf45f)" style="fill: #d62728"/>
   </g>
   <g id="patch_25">
    <path d="M 491.197931 403.050213 
L 574.643699 403.050213 
L 574.643699 398.292412 
L 491.197931 398.292412 
z
" clip-path="url(#pc0b85cf45f)" style="fill: #d62728"/>
   </g>
   <g id="patch_26">
    <path d="M 595.505141 402.015908 
L 678.950909 402.015908 
L 678.950909 400.981604 
L 595.505141 400.981604 
z
" clip-path="url(#pc0b85cf45f)" style="fill: #d62728"/>
   </g>
   <g id="patch_27">
    <path d="M 73.969091 367.470138 
L 157.414859 367.470138 
L 157.414859 360.436868 
L 73.969091 360.436868 
z
" clip-path="url(#pc0b85cf45f)" style="fill: #9467bd"/>
   </g>
   <g id="patch_28">
    <path d="M 178.276301 398.499273 
L 261.722069 398.499273 
L 261.722069 387.742506 
L 178.276301 387.742506 
z
" clip-path="url(#pc0b85cf45f)" style="fill: #9467bd"/>
   </g>
   <g id="patch_29">
    <path d="M 282.583511 395.810081 
L 366.029279 395.810081 
L 366.029279 384.846454 
L 282.583511 384.846454 
z
" clip-path="url(#pc0b85cf45f)" style="fill: #9467bd"/>
   </g>
   <g id="patch_30">
    <path d="M 386.890721 399.947299 
L 470.336489 399.947299 
L 470.336489 394.775777 
L 386.890721 394.775777 
z
" clip-path="url(#pc0b85cf45f)" style="fill: #9467bd"/>
   </g>
   <g id="patch_31">
    <path d="M 491.197931 398.292412 
L 574.643699 398.292412 
L 574.643699 393.741472 
L 491.197931 393.741472 
z
" clip-path="url(#pc0b85cf45f)" style="fill: #9467bd"/>
   </g>
   <g id="patch_32">
    <path d="M 595.505141 400.981604 
L 678.950909 400.981604 
L 678.950909 398.912995 
L 595.505141 398.912995 
z
" clip-path="url(#pc0b85cf45f)" style="fill: #9467bd"/>
   </g>
   <g id="patch_33">
    <path d="M 73.969091 360.436868 
L 157.414859 360.436868 
L 157.414859 332.924368 
L 73.969091 332.924368 
z
" clip-path="url(#pc0b85cf45f)" style="fill: #8c564b"/>
   </g>
   <g id="patch_34">
    <path d="M 178.276301 387.742506 
L 261.722069 387.742506 
L 261.722069 359.609424 
L 178.276301 359.609424 
z
" clip-path="url(#pc0b85cf45f)" style="fill: #8c564b"/>
   </g>
   <g id="patch_35">
    <path d="M 282.583511 384.846454 
L 366.029279 384.846454 
L 366.029279 354.02418 
L 282.583511 354.02418 
z
" clip-path="url(#pc0b85cf45f)" style="fill: #8c564b"/>
   </g>
   <g id="patch_36">
    <path d="M 386.890721 394.775777 
L 470.336489 394.775777 
L 470.336489 387.742506 
L 386.890721 387.742506 
z
" clip-path="url(#pc0b85cf45f)" style="fill: #8c564b"/>
   </g>
   <g id="patch_37">
    <path d="M 491.197931 393.741472 
L 574.643699 393.741472 
L 574.643699 372.4348 
L 491.197931 372.4348 
z
" clip-path="url(#pc0b85cf45f)" style="fill: #8c564b"/>
   </g>
   <g id="patch_38">
    <path d="M 595.505141 398.912995 
L 678.950909 398.912995 
L 678.950909 392.500307 
L 595.505141 392.500307 
z
" clip-path="url(#pc0b85cf45f)" style="fill: #8c564b"/>
   </g>
   <g id="patch_39">
    <path d="M 73.969091 332.924368 
L 157.414859 332.924368 
L 157.414859 308.721643 
L 73.969091 308.721643 
z
" clip-path="url(#pc0b85cf45f)" style="fill: #e377c2"/>
   </g>
   <g id="patch_40">
    <path d="M 178.276301 359.609424 
L 261.722069 359.609424 
L 261.722069 333.33809 
L 178.276301 333.33809 
z
" clip-path="url(#pc0b85cf45f)" style="fill: #e377c2"/>
   </g>
   <g id="patch_41">
    <path d="M 282.583511 354.02418 
L 366.029279 354.02418 
L 366.029279 334.165534 
L 282.583511 334.165534 
z
" clip-path="url(#pc0b85cf45f)" style="fill: #e377c2"/>
   </g>
   <g id="patch_42">
    <path d="M 386.890721 387.742506 
L 470.336489 387.742506 
L 470.336489 364.780947 
L 386.890721 364.780947 
z
" clip-path="url(#pc0b85cf45f)" style="fill: #e377c2"/>
   </g>
   <g id="patch_43">
    <path d="M 491.197931 372.4348 
L 574.643699 372.4348 
L 574.643699 345.749744 
L 491.197931 345.749744 
z
" clip-path="url(#pc0b85cf45f)" style="fill: #e377c2"/>
   </g>
   <g id="patch_44">
    <path d="M 595.505141 392.500307 
L 678.950909 392.500307 
L 678.950909 377.1926 
L 595.505141 377.1926 
z
" clip-path="url(#pc0b85cf45f)" style="fill: #e377c2"/>
   </g>
   <g id="patch_45">
    <path d="M 73.969091 308.721643 
L 157.414859 308.721643 
L 157.414859 281.829727 
L 73.969091 281.829727 
z
" clip-path="url(#pc0b85cf45f)" style="fill: #7f7f7f"/>
   </g>
   <g id="patch_46">
    <path d="M 178.276301 333.33809 
L 261.722069 333.33809 
L 261.722069 324.02935 
L 178.276301 324.02935 
z
" clip-path="url(#pc0b85cf45f)" style="fill: #7f7f7f"/>
   </g>
   <g id="patch_47">
    <path d="M 282.583511 334.165534 
L 366.029279 334.165534 
L 366.029279 325.891098 
L 282.583511 325.891098 
z
" clip-path="url(#pc0b85cf45f)" style="fill: #7f7f7f"/>
   </g>
   <g id="patch_48">
    <path d="M 386.890721 364.780947 
L 470.336489 364.780947 
L 470.336489 355.679067 
L 386.890721 355.679067 
z
" clip-path="url(#pc0b85cf45f)" style="fill: #7f7f7f"/>
   </g>
   <g id="patch_49">
    <path d="M 491.197931 345.749744 
L 574.643699 345.749744 
L 574.643699 331.06262 
L 491.197931 331.06262 
z
" clip-path="url(#pc0b85cf45f)" style="fill: #7f7f7f"/>
   </g>
   <g id="patch_50">
    <path d="M 595.505141 377.1926 
L 678.950909 377.1926 
L 678.950909 371.400495 
L 595.505141 371.400495 
z
" clip-path="url(#pc0b85cf45f)" style="fill: #7f7f7f"/>
   </g>
   <g id="patch_51">
    <path d="M 73.969091 281.829727 
L 157.414859 281.829727 
L 157.414859 279.347396 
L 73.969091 279.347396 
z
" clip-path="url(#pc0b85cf45f)" style="fill: #bcbd22"/>
   </g>
   <g id="patch_52">
    <path d="M 178.276301 324.02935 
L 261.722069 324.02935 
L 261.722069 321.547019 
L 178.276301 321.547019 
z
" clip-path="url(#pc0b85cf45f)" style="fill: #bcbd22"/>
   </g>
   <g id="patch_53">
    <path d="M 282.583511 325.891098 
L 366.029279 325.891098 
L 366.029279 320.512714 
L 282.583511 320.512714 
z
" clip-path="url(#pc0b85cf45f)" style="fill: #bcbd22"/>
   </g>
   <g id="patch_54">
    <path d="M 386.890721 355.679067 
L 470.336489 355.679067 
L 470.336489 344.715439 
L 386.890721 344.715439 
z
" clip-path="url(#pc0b85cf45f)" style="fill: #bcbd22"/>
   </g>
   <g id="patch_55">
    <path d="M 491.197931 331.06262 
L 574.643699 331.06262 
L 574.643699 322.581323 
L 491.197931 322.581323 
z
" clip-path="url(#pc0b85cf45f)" style="fill: #bcbd22"/>
   </g>
   <g id="patch_56">
    <path d="M 595.505141 371.400495 
L 678.950909 371.400495 
L 678.950909 366.228973 
L 595.505141 366.228973 
z
" clip-path="url(#pc0b85cf45f)" style="fill: #bcbd22"/>
   </g>
   <g id="patch_57">
    <path d="M 73.969091 279.347396 
L 157.414859 279.347396 
L 157.414859 235.286025 
L 73.969091 235.286025 
z
" clip-path="url(#pc0b85cf45f)" style="fill: #17becf"/>
   </g>
   <g id="patch_58">
    <path d="M 178.276301 321.547019 
L 261.722069 321.547019 
L 261.722069 44.146555 
L 178.276301 44.146555 
z
" clip-path="url(#pc0b85cf45f)" style="fill: #17becf"/>
   </g>
   <g id="patch_59">
    <path d="M 282.583511 320.512714 
L 366.029279 320.512714 
L 366.029279 239.216382 
L 282.583511 239.216382 
z
" clip-path="url(#pc0b85cf45f)" style="fill: #17becf"/>
   </g>
   <g id="patch_60">
    <path d="M 386.890721 344.715439 
L 470.336489 344.715439 
L 470.336489 314.720609 
L 386.890721 314.720609 
z
" clip-path="url(#pc0b85cf45f)" style="fill: #17becf"/>
   </g>
   <g id="patch_61">
    <path d="M 491.197931 322.581323 
L 574.643699 322.581323 
L 574.643699 310.583391 
L 491.197931 310.583391 
z
" clip-path="url(#pc0b85cf45f)" style="fill: #17becf"/>
   </g>
   <g id="patch_62">
    <path d="M 595.505141 366.228973 
L 678.950909 366.228973 
L 678.950909 280.3817 
L 595.505141 280.3817 
z
" clip-path="url(#pc0b85cf45f)" style="fill: #17becf"/>
   </g>
   <g id="matplotlib.axis_1">
    <g id="xtick_1">
     <g id="line2d_1">
      <defs>
       <path id="m6bbddc606d" d="M 0 0 
L 0 3.5 
" style="stroke: #ffffff; stroke-width: 0.8"/>
      </defs>
      <g>
       <use xlink:href="#m6bbddc606d" x="115.691975" y="403.877656" style="fill: #ffffff; stroke: #ffffff; stroke-width: 0.8"/>
      </g>
     </g>
     <g id="text_1">
      <!-- Jan -->
      <g style="fill: #ffffff" transform="translate(107.984162 418.475312) scale(0.1 -0.1)">
       <defs>
        <path id="DejaVuSans-2d" d="M 628 4666 
L 1259 4666 
L 1259 325 
Q 1259 -519 939 -900 
Q 619 -1281 -91 -1281 
L -331 -1281 
L -331 -750 
L -134 -750 
Q 284 -750 456 -515 
Q 628 -281 628 325 
L 628 4666 
z
" transform="scale(0.015625)"/>
        <path id="DejaVuSans-44" d="M 2194 1759 
Q 1497 1759 1228 1600 
Q 959 1441 959 1056 
Q 959 750 1161 570 
Q 1363 391 1709 391 
Q 2188 391 2477 730 
Q 2766 1069 2766 1631 
L 2766 1759 
L 2194 1759 
z
M 3341 1997 
L 3341 0 
L 2766 0 
L 2766 531 
Q 2569 213 2275 61 
Q 1981 -91 1556 -91 
Q 1019 -91 701 211 
Q 384 513 384 1019 
Q 384 1609 779 1909 
Q 1175 2209 1959 2209 
L 2766 2209 
L 2766 2266 
Q 2766 2663 2505 2880 
Q 2244 3097 1772 3097 
Q 1472 3097 1187 3025 
Q 903 2953 641 2809 
L 641 3341 
Q 956 3463 1253 3523 
Q 1550 3584 1831 3584 
Q 2591 3584 2966 3190 
Q 3341 2797 3341 1997 
z
" transform="scale(0.015625)"/>
        <path id="DejaVuSans-51" d="M 3513 2113 
L 3513 0 
L 2938 0 
L 2938 2094 
Q 2938 2591 2744 2837 
Q 2550 3084 2163 3084 
Q 1697 3084 1428 2787 
Q 1159 2491 1159 1978 
L 1159 0 
L 581 0 
L 581 3500 
L 1159 3500 
L 1159 2956 
Q 1366 3272 1645 3428 
Q 1925 3584 2291 3584 
Q 2894 3584 3203 3211 
Q 3513 2838 3513 2113 
z
" transform="scale(0.015625)"/>
       </defs>
       <use xlink:href="#DejaVuSans-2d"/>
       <use xlink:href="#DejaVuSans-44" transform="translate(29.5 0)"/>
       <use xlink:href="#DejaVuSans-51" transform="translate(90.78125 0)"/>
      </g>
     </g>
    </g>
    <g id="xtick_2">
     <g id="line2d_2">
      <g>
       <use xlink:href="#m6bbddc606d" x="219.999185" y="403.877656" style="fill: #ffffff; stroke: #ffffff; stroke-width: 0.8"/>
      </g>
     </g>
     <g id="text_2">
      <!-- Feb -->
      <g style="fill: #ffffff" transform="translate(211.14606 418.476094) scale(0.1 -0.1)">
       <defs>
        <path id="DejaVuSans-29" d="M 628 4666 
L 3309 4666 
L 3309 4134 
L 1259 4134 
L 1259 2759 
L 3109 2759 
L 3109 2228 
L 1259 2228 
L 1259 0 
L 628 0 
L 628 4666 
z
" transform="scale(0.015625)"/>
        <path id="DejaVuSans-48" d="M 3597 1894 
L 3597 1613 
L 953 1613 
Q 991 1019 1311 708 
Q 1631 397 2203 397 
Q 2534 397 2845 478 
Q 3156 559 3463 722 
L 3463 178 
Q 3153 47 2828 -22 
Q 2503 -91 2169 -91 
Q 1331 -91 842 396 
Q 353 884 353 1716 
Q 353 2575 817 3079 
Q 1281 3584 2069 3584 
Q 2775 3584 3186 3129 
Q 3597 2675 3597 1894 
z
M 3022 2063 
Q 3016 2534 2758 2815 
Q 2500 3097 2075 3097 
Q 1594 3097 1305 2825 
Q 1016 2553 972 2059 
L 3022 2063 
z
" transform="scale(0.015625)"/>
        <path id="DejaVuSans-45" d="M 3116 1747 
Q 3116 2381 2855 2742 
Q 2594 3103 2138 3103 
Q 1681 3103 1420 2742 
Q 1159 2381 1159 1747 
Q 1159 1113 1420 752 
Q 1681 391 2138 391 
Q 2594 391 2855 752 
Q 3116 1113 3116 1747 
z
M 1159 2969 
Q 1341 3281 1617 3432 
Q 1894 3584 2278 3584 
Q 2916 3584 3314 3078 
Q 3713 2572 3713 1747 
Q 3713 922 3314 415 
Q 2916 -91 2278 -91 
Q 1894 -91 1617 61 
Q 1341 213 1159 525 
L 1159 0 
L 581 0 
L 581 4863 
L 1159 4863 
L 1159 2969 
z
" transform="scale(0.015625)"/>
       </defs>
       <use xlink:href="#DejaVuSans-29"/>
       <use xlink:href="#DejaVuSans-48" transform="translate(52.046875 0)"/>
       <use xlink:href="#DejaVuSans-45" transform="translate(113.578125 0)"/>
      </g>
     </g>
    </g>
    <g id="xtick_3">
     <g id="line2d_3">
      <g>
       <use xlink:href="#m6bbddc606d" x="324.306395" y="403.877656" style="fill: #ffffff; stroke: #ffffff; stroke-width: 0.8"/>
      </g>
     </g>
     <g id="text_3">
      <!-- Mar -->
      <g style="fill: #ffffff" transform="translate(314.872801 418.475312) scale(0.1 -0.1)">
       <defs>
        <path id="DejaVuSans-30" d="M 628 4666 
L 1569 4666 
L 2759 1491 
L 3956 4666 
L 4897 4666 
L 4897 0 
L 4281 0 
L 4281 4097 
L 3078 897 
L 2444 897 
L 1241 4097 
L 1241 0 
L 628 0 
L 628 4666 
z
" transform="scale(0.015625)"/>
        <path id="DejaVuSans-55" d="M 2631 2963 
Q 2534 3019 2420 3045 
Q 2306 3072 2169 3072 
Q 1681 3072 1420 2755 
Q 1159 2438 1159 1844 
L 1159 0 
L 581 0 
L 581 3500 
L 1159 3500 
L 1159 2956 
Q 1341 3275 1631 3429 
Q 1922 3584 2338 3584 
Q 2397 3584 2469 3576 
Q 2541 3569 2628 3553 
L 2631 2963 
z
" transform="scale(0.015625)"/>
       </defs>
       <use xlink:href="#DejaVuSans-30"/>
       <use xlink:href="#DejaVuSans-44" transform="translate(86.28125 0)"/>
       <use xlink:href="#DejaVuSans-55" transform="translate(147.5625 0)"/>
      </g>
     </g>
    </g>
    <g id="xtick_4">
     <g id="line2d_4">
      <g>
       <use xlink:href="#m6bbddc606d" x="428.613605" y="403.877656" style="fill: #ffffff; stroke: #ffffff; stroke-width: 0.8"/>
      </g>
     </g>
     <g id="text_4">
      <!-- Apr -->
      <g style="fill: #ffffff" transform="translate(419.963605 418.475312) scale(0.1 -0.1)">
       <defs>
        <path id="DejaVuSans-24" d="M 2188 4044 
L 1331 1722 
L 3047 1722 
L 2188 4044 
z
M 1831 4666 
L 2547 4666 
L 4325 0 
L 3669 0 
L 3244 1197 
L 1141 1197 
L 716 0 
L 50 0 
L 1831 4666 
z
" transform="scale(0.015625)"/>
        <path id="DejaVuSans-53" d="M 1159 525 
L 1159 -1331 
L 581 -1331 
L 581 3500 
L 1159 3500 
L 1159 2969 
Q 1341 3281 1617 3432 
Q 1894 3584 2278 3584 
Q 2916 3584 3314 3078 
Q 3713 2572 3713 1747 
Q 3713 922 3314 415 
Q 2916 -91 2278 -91 
Q 1894 -91 1617 61 
Q 1341 213 1159 525 
z
M 3116 1747 
Q 3116 2381 2855 2742 
Q 2594 3103 2138 3103 
Q 1681 3103 1420 2742 
Q 1159 2381 1159 1747 
Q 1159 1113 1420 752 
Q 1681 391 2138 391 
Q 2594 391 2855 752 
Q 3116 1113 3116 1747 
z
" transform="scale(0.015625)"/>
       </defs>
       <use xlink:href="#DejaVuSans-24"/>
       <use xlink:href="#DejaVuSans-53" transform="translate(68.40625 0)"/>
       <use xlink:href="#DejaVuSans-55" transform="translate(131.890625 0)"/>
      </g>
     </g>
    </g>
    <g id="xtick_5">
     <g id="line2d_5">
      <g>
       <use xlink:href="#m6bbddc606d" x="532.920815" y="403.877656" style="fill: #ffffff; stroke: #ffffff; stroke-width: 0.8"/>
      </g>
     </g>
     <g id="text_5">
      <!-- May -->
      <g style="fill: #ffffff" transform="translate(522.583315 418.475312) scale(0.1 -0.1)">
       <defs>
        <path id="DejaVuSans-5c" d="M 2059 -325 
Q 1816 -950 1584 -1140 
Q 1353 -1331 966 -1331 
L 506 -1331 
L 506 -850 
L 844 -850 
Q 1081 -850 1212 -737 
Q 1344 -625 1503 -206 
L 1606 56 
L 191 3500 
L 800 3500 
L 1894 763 
L 2988 3500 
L 3597 3500 
L 2059 -325 
z
" transform="scale(0.015625)"/>
       </defs>
       <use xlink:href="#DejaVuSans-30"/>
       <use xlink:href="#DejaVuSans-44" transform="translate(86.28125 0)"/>
       <use xlink:href="#DejaVuSans-5c" transform="translate(147.5625 0)"/>
      </g>
     </g>
    </g>
    <g id="xtick_6">
     <g id="line2d_6">
      <g>
       <use xlink:href="#m6bbddc606d" x="637.228025" y="403.877656" style="fill: #ffffff; stroke: #ffffff; stroke-width: 0.8"/>
      </g>
     </g>
     <g id="text_6">
      <!-- Jun -->
      <g style="fill: #ffffff" transform="translate(629.415525 418.475312) scale(0.1 -0.1)">
       <defs>
        <path id="DejaVuSans-58" d="M 544 1381 
L 544 3500 
L 1119 3500 
L 1119 1403 
Q 1119 906 1312 657 
Q 1506 409 1894 409 
Q 2359 409 2629 706 
Q 2900 1003 2900 1516 
L 2900 3500 
L 3475 3500 
L 3475 0 
L 2900 0 
L 2900 538 
Q 2691 219 2414 64 
Q 2138 -91 1772 -91 
Q 1169 -91 856 284 
Q 544 659 544 1381 
z
M 1991 3584 
L 1991 3584 
z
" transform="scale(0.015625)"/>
       </defs>
       <use xlink:href="#DejaVuSans-2d"/>
       <use xlink:href="#DejaVuSans-58" transform="translate(29.5 0)"/>
       <use xlink:href="#DejaVuSans-51" transform="translate(92.875 0)"/>
      </g>
     </g>
    </g>
   </g>
   <g id="matplotlib.axis_2">
    <g id="ytick_1">
     <g id="line2d_7">
      <defs>
       <path id="md87ebaa725" d="M 0 0 
L -3.5 0 
" style="stroke: #ffffff; stroke-width: 0.8"/>
      </defs>
      <g>
       <use xlink:href="#md87ebaa725" x="43.72" y="403.877656" style="fill: #ffffff; stroke: #ffffff; stroke-width: 0.8"/>
      </g>
     </g>
     <g id="text_7">
      <!-- 0 -->
      <g style="fill: #ffffff" transform="translate(30.3575 407.676484) scale(0.1 -0.1)">
       <defs>
        <path id="DejaVuSans-13" d="M 2034 4250 
Q 1547 4250 1301 3770 
Q 1056 3291 1056 2328 
Q 1056 1369 1301 889 
Q 1547 409 2034 409 
Q 2525 409 2770 889 
Q 3016 1369 3016 2328 
Q 3016 3291 2770 3770 
Q 2525 4250 2034 4250 
z
M 2034 4750 
Q 2819 4750 3233 4129 
Q 3647 3509 3647 2328 
Q 3647 1150 3233 529 
Q 2819 -91 2034 -91 
Q 1250 -91 836 529 
Q 422 1150 422 2328 
Q 422 3509 836 4129 
Q 1250 4750 2034 4750 
z
" transform="scale(0.015625)"/>
       </defs>
       <use xlink:href="#DejaVuSans-13"/>
      </g>
     </g>
    </g>
    <g id="ytick_2">
     <g id="line2d_8">
      <g>
       <use xlink:href="#md87ebaa725" x="43.72" y="352.162432" style="fill: #ffffff; stroke: #ffffff; stroke-width: 0.8"/>
      </g>
     </g>
     <g id="text_8">
      <!-- 250 -->
      <g style="fill: #ffffff" transform="translate(17.6325 355.96126) scale(0.1 -0.1)">
       <defs>
        <path id="DejaVuSans-15" d="M 1228 531 
L 3431 531 
L 3431 0 
L 469 0 
L 469 531 
Q 828 903 1448 1529 
Q 2069 2156 2228 2338 
Q 2531 2678 2651 2914 
Q 2772 3150 2772 3378 
Q 2772 3750 2511 3984 
Q 2250 4219 1831 4219 
Q 1534 4219 1204 4116 
Q 875 4013 500 3803 
L 500 4441 
Q 881 4594 1212 4672 
Q 1544 4750 1819 4750 
Q 2544 4750 2975 4387 
Q 3406 4025 3406 3419 
Q 3406 3131 3298 2873 
Q 3191 2616 2906 2266 
Q 2828 2175 2409 1742 
Q 1991 1309 1228 531 
z
" transform="scale(0.015625)"/>
        <path id="DejaVuSans-18" d="M 691 4666 
L 3169 4666 
L 3169 4134 
L 1269 4134 
L 1269 2991 
Q 1406 3038 1543 3061 
Q 1681 3084 1819 3084 
Q 2600 3084 3056 2656 
Q 3513 2228 3513 1497 
Q 3513 744 3044 326 
Q 2575 -91 1722 -91 
Q 1428 -91 1123 -41 
Q 819 9 494 109 
L 494 744 
Q 775 591 1075 516 
Q 1375 441 1709 441 
Q 2250 441 2565 725 
Q 2881 1009 2881 1497 
Q 2881 1984 2565 2268 
Q 2250 2553 1709 2553 
Q 1456 2553 1204 2497 
Q 953 2441 691 2322 
L 691 4666 
z
" transform="scale(0.015625)"/>
       </defs>
       <use xlink:href="#DejaVuSans-15"/>
       <use xlink:href="#DejaVuSans-18" transform="translate(63.625 0)"/>
       <use xlink:href="#DejaVuSans-13" transform="translate(127.25 0)"/>
      </g>
     </g>
    </g>
    <g id="ytick_3">
     <g id="line2d_9">
      <g>
       <use xlink:href="#md87ebaa725" x="43.72" y="300.447207" style="fill: #ffffff; stroke: #ffffff; stroke-width: 0.8"/>
      </g>
     </g>
     <g id="text_9">
      <!-- 500 -->
      <g style="fill: #ffffff" transform="translate(17.6325 304.246035) scale(0.1 -0.1)">
       <use xlink:href="#DejaVuSans-18"/>
       <use xlink:href="#DejaVuSans-13" transform="translate(63.625 0)"/>
       <use xlink:href="#DejaVuSans-13" transform="translate(127.25 0)"/>
      </g>
     </g>
    </g>
    <g id="ytick_4">
     <g id="line2d_10">
      <g>
       <use xlink:href="#md87ebaa725" x="43.72" y="248.731983" style="fill: #ffffff; stroke: #ffffff; stroke-width: 0.8"/>
      </g>
     </g>
     <g id="text_10">
      <!-- 750 -->
      <g style="fill: #ffffff" transform="translate(17.6325 252.530811) scale(0.1 -0.1)">
       <defs>
        <path id="DejaVuSans-1a" d="M 525 4666 
L 3525 4666 
L 3525 4397 
L 1831 0 
L 1172 0 
L 2766 4134 
L 525 4134 
L 525 4666 
z
" transform="scale(0.015625)"/>
       </defs>
       <use xlink:href="#DejaVuSans-1a"/>
       <use xlink:href="#DejaVuSans-18" transform="translate(63.625 0)"/>
       <use xlink:href="#DejaVuSans-13" transform="translate(127.25 0)"/>
      </g>
     </g>
    </g>
    <g id="ytick_5">
     <g id="line2d_11">
      <g>
       <use xlink:href="#md87ebaa725" x="43.72" y="197.016758" style="fill: #ffffff; stroke: #ffffff; stroke-width: 0.8"/>
      </g>
     </g>
     <g id="text_11">
      <!-- 1000 -->
      <g style="fill: #ffffff" transform="translate(11.27 200.815587) scale(0.1 -0.1)">
       <defs>
        <path id="DejaVuSans-14" d="M 794 531 
L 1825 531 
L 1825 4091 
L 703 3866 
L 703 4441 
L 1819 4666 
L 2450 4666 
L 2450 531 
L 3481 531 
L 3481 0 
L 794 0 
L 794 531 
z
" transform="scale(0.015625)"/>
       </defs>
       <use xlink:href="#DejaVuSans-14"/>
       <use xlink:href="#DejaVuSans-13" transform="translate(63.625 0)"/>
       <use xlink:href="#DejaVuSans-13" transform="translate(127.25 0)"/>
       <use xlink:href="#DejaVuSans-13" transform="translate(190.875 0)"/>
      </g>
     </g>
    </g>
    <g id="ytick_6">
     <g id="line2d_12">
      <g>
       <use xlink:href="#md87ebaa725" x="43.72" y="145.301534" style="fill: #ffffff; stroke: #ffffff; stroke-width: 0.8"/>
      </g>
     </g>
     <g id="text_12">
      <!-- 1250 -->
      <g style="fill: #ffffff" transform="translate(11.27 149.100362) scale(0.1 -0.1)">
       <use xlink:href="#DejaVuSans-14"/>
       <use xlink:href="#DejaVuSans-15" transform="translate(63.625 0)"/>
       <use xlink:href="#DejaVuSans-18" transform="translate(127.25 0)"/>
       <use xlink:href="#DejaVuSans-13" transform="translate(190.875 0)"/>
      </g>
     </g>
    </g>
    <g id="ytick_7">
     <g id="line2d_13">
      <g>
       <use xlink:href="#md87ebaa725" x="43.72" y="93.58631" style="fill: #ffffff; stroke: #ffffff; stroke-width: 0.8"/>
      </g>
     </g>
     <g id="text_13">
      <!-- 1500 -->
      <g style="fill: #ffffff" transform="translate(11.27 97.385138) scale(0.1 -0.1)">
       <use xlink:href="#DejaVuSans-14"/>
       <use xlink:href="#DejaVuSans-18" transform="translate(63.625 0)"/>
       <use xlink:href="#DejaVuSans-13" transform="translate(127.25 0)"/>
       <use xlink:href="#DejaVuSans-13" transform="translate(190.875 0)"/>
      </g>
     </g>
    </g>
    <g id="ytick_8">
     <g id="line2d_14">
      <g>
       <use xlink:href="#md87ebaa725" x="43.72" y="41.871085" style="fill: #ffffff; stroke: #ffffff; stroke-width: 0.8"/>
      </g>
     </g>
     <g id="text_14">
      <!-- 1750 -->
      <g style="fill: #ffffff" transform="translate(11.27 45.669913) scale(0.1 -0.1)">
       <use xlink:href="#DejaVuSans-14"/>
       <use xlink:href="#DejaVuSans-1a" transform="translate(63.625 0)"/>
       <use xlink:href="#DejaVuSans-18" transform="translate(127.25 0)"/>
       <use xlink:href="#DejaVuSans-13" transform="translate(190.875 0)"/>
      </g>
     </g>
    </g>
   </g>
   <g id="patch_63">
    <path d="M 43.72 403.877656 
L 43.72 26.16 
" style="fill: none; stroke: #a9a9a9; stroke-width: 0.8; stroke-linejoin: miter; stroke-linecap: square"/>
   </g>
   <g id="patch_64">
    <path d="M 709.2 403.877656 
L 709.2 26.16 
" style="fill: none; stroke: #a9a9a9; stroke-width: 0.8; stroke-linejoin: miter; stroke-linecap: square"/>
   </g>
   <g id="patch_65">
    <path d="M 43.72 403.877656 
L 709.2 403.877656 
" style="fill: none; stroke: #a9a9a9; stroke-width: 0.8; stroke-linejoin: miter; stroke-linecap: square"/>
   </g>
   <g id="patch_66">
    <path d="M 43.72 26.16 
L 709.2 26.16 
" style="fill: none; stroke: #a9a9a9; stroke-width: 0.8; stroke-linejoin: miter; stroke-linecap: square"/>
   </g>
   <g id="text_15">
    <!-- Monthly downloads of pyfast pip package per python version 2026 -->
    <g style="fill: #ffffff" transform="translate(175.905313 20.16) scale(0.12 -0.12)">
     <defs>
      <path id="DejaVuSans-52" d="M 1959 3097 
Q 1497 3097 1228 2736 
Q 959 2375 959 1747 
Q 959 1119 1226 758 
Q 1494 397 1959 397 
Q 2419 397 2687 759 
Q 2956 1122 2956 1747 
Q 2956 2369 2687 2733 
Q 2419 3097 1959 3097 
z
M 1959 3584 
Q 2709 3584 3137 3096 
Q 3566 2609 3566 1747 
Q 3566 888 3137 398 
Q 2709 -91 1959 -91 
Q 1206 -91 779 398 
Q 353 888 353 1747 
Q 353 2609 779 3096 
Q 1206 3584 1959 3584 
z
" transform="scale(0.015625)"/>
      <path id="DejaVuSans-57" d="M 1172 4494 
L 1172 3500 
L 2356 3500 
L 2356 3053 
L 1172 3053 
L 1172 1153 
Q 1172 725 1289 603 
Q 1406 481 1766 481 
L 2356 481 
L 2356 0 
L 1766 0 
Q 1100 0 847 248 
Q 594 497 594 1153 
L 594 3053 
L 172 3053 
L 172 3500 
L 594 3500 
L 594 4494 
L 1172 4494 
z
" transform="scale(0.015625)"/>
      <path id="DejaVuSans-4b" d="M 3513 2113 
L 3513 0 
L 2938 0 
L 2938 2094 
Q 2938 2591 2744 2837 
Q 2550 3084 2163 3084 
Q 1697 3084 1428 2787 
Q 1159 2491 1159 1978 
L 1159 0 
L 581 0 
L 581 4863 
L 1159 4863 
L 1159 2956 
Q 1366 3272 1645 3428 
Q 1925 3584 2291 3584 
Q 2894 3584 3203 3211 
Q 3513 2838 3513 2113 
z
" transform="scale(0.015625)"/>
      <path id="DejaVuSans-4f" d="M 603 4863 
L 1178 4863 
L 1178 0 
L 603 0 
L 603 4863 
z
" transform="scale(0.015625)"/>
      <path id="DejaVuSans-3" transform="scale(0.015625)"/>
      <path id="DejaVuSans-47" d="M 2906 2969 
L 2906 4863 
L 3481 4863 
L 3481 0 
L 2906 0 
L 2906 525 
Q 2725 213 2448 61 
Q 2172 -91 1784 -91 
Q 1150 -91 751 415 
Q 353 922 353 1747 
Q 353 2572 751 3078 
Q 1150 3584 1784 3584 
Q 2172 3584 2448 3432 
Q 2725 3281 2906 2969 
z
M 947 1747 
Q 947 1113 1208 752 
Q 1469 391 1925 391 
Q 2381 391 2643 752 
Q 2906 1113 2906 1747 
Q 2906 2381 2643 2742 
Q 2381 3103 1925 3103 
Q 1469 3103 1208 2742 
Q 947 2381 947 1747 
z
" transform="scale(0.015625)"/>
      <path id="DejaVuSans-5a" d="M 269 3500 
L 844 3500 
L 1563 769 
L 2278 3500 
L 2956 3500 
L 3675 769 
L 4391 3500 
L 4966 3500 
L 4050 0 
L 3372 0 
L 2619 2869 
L 1863 0 
L 1184 0 
L 269 3500 
z
" transform="scale(0.015625)"/>
      <path id="DejaVuSans-56" d="M 2834 3397 
L 2834 2853 
Q 2591 2978 2328 3040 
Q 2066 3103 1784 3103 
Q 1356 3103 1142 2972 
Q 928 2841 928 2578 
Q 928 2378 1081 2264 
Q 1234 2150 1697 2047 
L 1894 2003 
Q 2506 1872 2764 1633 
Q 3022 1394 3022 966 
Q 3022 478 2636 193 
Q 2250 -91 1575 -91 
Q 1294 -91 989 -36 
Q 684 19 347 128 
L 347 722 
Q 666 556 975 473 
Q 1284 391 1588 391 
Q 1994 391 2212 530 
Q 2431 669 2431 922 
Q 2431 1156 2273 1281 
Q 2116 1406 1581 1522 
L 1381 1569 
Q 847 1681 609 1914 
Q 372 2147 372 2553 
Q 372 3047 722 3315 
Q 1072 3584 1716 3584 
Q 2034 3584 2315 3537 
Q 2597 3491 2834 3397 
z
" transform="scale(0.015625)"/>
      <path id="DejaVuSans-49" d="M 2375 4863 
L 2375 4384 
L 1825 4384 
Q 1516 4384 1395 4259 
Q 1275 4134 1275 3809 
L 1275 3500 
L 2222 3500 
L 2222 3053 
L 1275 3053 
L 1275 0 
L 697 0 
L 697 3053 
L 147 3053 
L 147 3500 
L 697 3500 
L 697 3744 
Q 697 4328 969 4595 
Q 1241 4863 1831 4863 
L 2375 4863 
z
" transform="scale(0.015625)"/>
      <path id="DejaVuSans-4c" d="M 603 3500 
L 1178 3500 
L 1178 0 
L 603 0 
L 603 3500 
z
M 603 4863 
L 1178 4863 
L 1178 4134 
L 603 4134 
L 603 4863 
z
" transform="scale(0.015625)"/>
      <path id="DejaVuSans-46" d="M 3122 3366 
L 3122 2828 
Q 2878 2963 2633 3030 
Q 2388 3097 2138 3097 
Q 1578 3097 1268 2742 
Q 959 2388 959 1747 
Q 959 1106 1268 751 
Q 1578 397 2138 397 
Q 2388 397 2633 464 
Q 2878 531 3122 666 
L 3122 134 
Q 2881 22 2623 -34 
Q 2366 -91 2075 -91 
Q 1284 -91 818 406 
Q 353 903 353 1747 
Q 353 2603 823 3093 
Q 1294 3584 2113 3584 
Q 2378 3584 2631 3529 
Q 2884 3475 3122 3366 
z
" transform="scale(0.015625)"/>
      <path id="DejaVuSans-4e" d="M 581 4863 
L 1159 4863 
L 1159 1991 
L 2875 3500 
L 3609 3500 
L 1753 1863 
L 3688 0 
L 2938 0 
L 1159 1709 
L 1159 0 
L 581 0 
L 581 4863 
z
" transform="scale(0.015625)"/>
      <path id="DejaVuSans-4a" d="M 2906 1791 
Q 2906 2416 2648 2759 
Q 2391 3103 1925 3103 
Q 1463 3103 1205 2759 
Q 947 2416 947 1791 
Q 947 1169 1205 825 
Q 1463 481 1925 481 
Q 2391 481 2648 825 
Q 2906 1169 2906 1791 
z
M 3481 434 
Q 3481 -459 3084 -895 
Q 2688 -1331 1869 -1331 
Q 1566 -1331 1297 -1286 
Q 1028 -1241 775 -1147 
L 775 -588 
Q 1028 -725 1275 -790 
Q 1522 -856 1778 -856 
Q 2344 -856 2625 -561 
Q 2906 -266 2906 331 
L 2906 616 
Q 2728 306 2450 153 
Q 2172 0 1784 0 
Q 1141 0 747 490 
Q 353 981 353 1791 
Q 353 2603 747 3093 
Q 1141 3584 1784 3584 
Q 2172 3584 2450 3431 
Q 2728 3278 2906 2969 
L 2906 3500 
L 3481 3500 
L 3481 434 
z
" transform="scale(0.015625)"/>
      <path id="DejaVuSans-59" d="M 191 3500 
L 800 3500 
L 1894 563 
L 2988 3500 
L 3597 3500 
L 2284 0 
L 1503 0 
L 191 3500 
z
" transform="scale(0.015625)"/>
      <path id="DejaVuSans-19" d="M 2113 2584 
Q 1688 2584 1439 2293 
Q 1191 2003 1191 1497 
Q 1191 994 1439 701 
Q 1688 409 2113 409 
Q 2538 409 2786 701 
Q 3034 994 3034 1497 
Q 3034 2003 2786 2293 
Q 2538 2584 2113 2584 
z
M 3366 4563 
L 3366 3988 
Q 3128 4100 2886 4159 
Q 2644 4219 2406 4219 
Q 1781 4219 1451 3797 
Q 1122 3375 1075 2522 
Q 1259 2794 1537 2939 
Q 1816 3084 2150 3084 
Q 2853 3084 3261 2657 
Q 3669 2231 3669 1497 
Q 3669 778 3244 343 
Q 2819 -91 2113 -91 
Q 1303 -91 875 529 
Q 447 1150 447 2328 
Q 447 3434 972 4092 
Q 1497 4750 2381 4750 
Q 2619 4750 2861 4703 
Q 3103 4656 3366 4563 
z
" transform="scale(0.015625)"/>
     </defs>
     <use xlink:href="#DejaVuSans-30"/>
     <use xlink:href="#DejaVuSans-52" transform="translate(86.28125 0)"/>
     <use xlink:href="#DejaVuSans-51" transform="translate(147.46875 0)"/>
     <use xlink:href="#DejaVuSans-57" transform="translate(210.84375 0)"/>
     <use xlink:href="#DejaVuSans-4b" transform="translate(250.046875 0)"/>
     <use xlink:href="#DejaVuSans-4f" transform="translate(313.421875 0)"/>
     <use xlink:href="#DejaVuSans-5c" transform="translate(341.203125 0)"/>
     <use xlink:href="#DejaVuSans-3" transform="translate(400.390625 0)"/>
     <use xlink:href="#DejaVuSans-47" transform="translate(432.171875 0)"/>
     <use xlink:href="#DejaVuSans-52" transform="translate(495.65625 0)"/>
     <use xlink:href="#DejaVuSans-5a" transform="translate(556.84375 0)"/>
     <use xlink:href="#DejaVuSans-51" transform="translate(638.625 0)"/>
     <use xlink:href="#DejaVuSans-4f" transform="translate(702 0)"/>
     <use xlink:href="#DejaVuSans-52" transform="translate(729.78125 0)"/>
     <use xlink:href="#DejaVuSans-44" transform="translate(790.96875 0)"/>
     <use xlink:href="#DejaVuSans-47" transform="translate(852.25 0)"/>
     <use xlink:href="#DejaVuSans-56" transform="translate(915.734375 0)"/>
     <use xlink:href="#DejaVuSans-3" transform="translate(967.828125 0)"/>
     <use xlink:href="#DejaVuSans-52" transform="translate(999.609375 0)"/>
     <use xlink:href="#DejaVuSans-49" transform="translate(1060.796875 0)"/>
     <use xlink:href="#DejaVuSans-3" transform="translate(1096 0)"/>
     <use xlink:href="#DejaVuSans-53" transform="translate(1127.78125 0)"/>
     <use xlink:href="#DejaVuSans-5c" transform="translate(1191.265625 0)"/>
     <use xlink:href="#DejaVuSans-49" transform="translate(1250.453125 0)"/>
     <use xlink:href="#DejaVuSans-44" transform="translate(1285.65625 0)"/>
     <use xlink:href="#DejaVuSans-56" transform="translate(1346.9375 0)"/>
     <use xlink:href="#DejaVuSans-57" transform="translate(1399.03125 0)"/>
     <use xlink:href="#DejaVuSans-3" transform="translate(1438.234375 0)"/>
     <use xlink:href="#DejaVuSans-53" transform="translate(1470.015625 0)"/>
     <use xlink:href="#DejaVuSans-4c" transform="translate(1533.5 0)"/>
     <use xlink:href="#DejaVuSans-53" transform="translate(1561.28125 0)"/>
     <use xlink:href="#DejaVuSans-3" transform="translate(1624.765625 0)"/>
     <use xlink:href="#DejaVuSans-53" transform="translate(1656.546875 0)"/>
     <use xlink:href="#DejaVuSans-44" transform="translate(1720.03125 0)"/>
     <use xlink:href="#DejaVuSans-46" transform="translate(1781.3125 0)"/>
     <use xlink:href="#DejaVuSans-4e" transform="translate(1836.296875 0)"/>
     <use xlink:href="#DejaVuSans-44" transform="translate(1892.453125 0)"/>
     <use xlink:href="#DejaVuSans-4a" transform="translate(1953.734375 0)"/>
     <use xlink:href="#DejaVuSans-48" transform="translate(2017.21875 0)"/>
     <use xlink:href="#DejaVuSans-3" transform="translate(2078.75 0)"/>
     <use xlink:href="#DejaVuSans-53" transform="translate(2110.53125 0)"/>
     <use xlink:href="#DejaVuSans-48" transform="translate(2174.015625 0)"/>
     <use xlink:href="#DejaVuSans-55" transform="translate(2235.546875 0)"/>
     <use xlink:href="#DejaVuSans-3" transform="translate(2276.65625 0)"/>
     <use xlink:href="#DejaVuSans-53" transform="translate(2308.4375 0)"/>
     <use xlink:href="#DejaVuSans-5c" transform="translate(2371.921875 0)"/>
     <use xlink:href="#DejaVuSans-57" transform="translate(2431.109375 0)"/>
     <use xlink:href="#DejaVuSans-4b" transform="translate(2470.3125 0)"/>
     <use xlink:href="#DejaVuSans-52" transform="translate(2533.6875 0)"/>
     <use xlink:href="#DejaVuSans-51" transform="translate(2594.875 0)"/>
     <use xlink:href="#DejaVuSans-3" transform="translate(2658.25 0)"/>
     <use xlink:href="#DejaVuSans-59" transform="translate(2690.03125 0)"/>
     <use xlink:href="#DejaVuSans-48" transform="translate(2749.21875 0)"/>
     <use xlink:href="#DejaVuSans-55" transform="translate(2810.75 0)"/>
     <use xlink:href="#DejaVuSans-56" transform="translate(2851.859375 0)"/>
     <use xlink:href="#DejaVuSans-4c" transform="translate(2903.953125 0)"/>
     <use xlink:href="#DejaVuSans-52" transform="translate(2931.734375 0)"/>
     <use xlink:href="#DejaVuSans-51" transform="translate(2992.921875 0)"/>
     <use xlink:href="#DejaVuSans-3" transform="translate(3056.296875 0)"/>
     <use xlink:href="#DejaVuSans-15" transform="translate(3088.078125 0)"/>
     <use xlink:href="#DejaVuSans-13" transform="translate(3151.703125 0)"/>
     <use xlink:href="#DejaVuSans-15" transform="translate(3215.328125 0)"/>
     <use xlink:href="#DejaVuSans-19" transform="translate(3278.953125 0)"/>
    </g>
   </g>
   <g id="legend_1">
    <g id="patch_67">
     <path d="M 623.78125 184.167812 
L 702.2 184.167812 
Q 704.2 184.167812 704.2 182.167812 
L 704.2 33.16 
Q 704.2 31.16 702.2 31.16 
L 623.78125 31.16 
Q 621.78125 31.16 621.78125 33.16 
L 621.78125 182.167812 
Q 621.78125 184.167812 623.78125 184.167812 
z
" style="fill: #282c34; opacity: 0.8; stroke: #a9a9a9; stroke-linejoin: miter"/>
    </g>
    <g id="patch_68">
     <path d="M 625.78125 42.758437 
L 645.78125 42.758437 
L 645.78125 35.758437 
L 625.78125 35.758437 
z
" style="fill: #1f77b4"/>
    </g>
    <g id="text_16">
     <!-- 3.6 -->
     <g style="fill: #ffffff" transform="translate(653.78125 42.758437) scale(0.1 -0.1)">
      <defs>
       <path id="DejaVuSans-16" d="M 2597 2516 
Q 3050 2419 3304 2112 
Q 3559 1806 3559 1356 
Q 3559 666 3084 287 
Q 2609 -91 1734 -91 
Q 1441 -91 1130 -33 
Q 819 25 488 141 
L 488 750 
Q 750 597 1062 519 
Q 1375 441 1716 441 
Q 2309 441 2620 675 
Q 2931 909 2931 1356 
Q 2931 1769 2642 2001 
Q 2353 2234 1838 2234 
L 1294 2234 
L 1294 2753 
L 1863 2753 
Q 2328 2753 2575 2939 
Q 2822 3125 2822 3475 
Q 2822 3834 2567 4026 
Q 2313 4219 1838 4219 
Q 1578 4219 1281 4162 
Q 984 4106 628 3988 
L 628 4550 
Q 988 4650 1302 4700 
Q 1616 4750 1894 4750 
Q 2613 4750 3031 4423 
Q 3450 4097 3450 3541 
Q 3450 3153 3228 2886 
Q 3006 2619 2597 2516 
z
" transform="scale(0.015625)"/>
       <path id="DejaVuSans-11" d="M 684 794 
L 1344 794 
L 1344 0 
L 684 0 
L 684 794 
z
" transform="scale(0.015625)"/>
      </defs>
      <use xlink:href="#DejaVuSans-16"/>
      <use xlink:href="#DejaVuSans-11" transform="translate(63.625 0)"/>
      <use xlink:href="#DejaVuSans-19" transform="translate(95.40625 0)"/>
     </g>
    </g>
    <g id="patch_69">
     <path d="M 625.78125 57.759219 
L 645.78125 57.759219 
L 645.78125 50.759219 
L 625.78125 50.759219 
z
" style="fill: #ff7f0e"/>
    </g>
    <g id="text_17">
     <!-- 3.7 -->
     <g style="fill: #ffffff" transform="translate(653.78125 57.759219) scale(0.1 -0.1)">
      <use xlink:href="#DejaVuSans-16"/>
      <use xlink:href="#DejaVuSans-11" transform="translate(63.625 0)"/>
      <use xlink:href="#DejaVuSans-1a" transform="translate(95.40625 0)"/>
     </g>
    </g>
    <g id="patch_70">
     <path d="M 625.78125 72.76 
L 645.78125 72.76 
L 645.78125 65.76 
L 625.78125 65.76 
z
" style="fill: #2ca02c"/>
    </g>
    <g id="text_18">
     <!-- 3.8 -->
     <g style="fill: #ffffff" transform="translate(653.78125 72.76) scale(0.1 -0.1)">
      <defs>
       <path id="DejaVuSans-1b" d="M 2034 2216 
Q 1584 2216 1326 1975 
Q 1069 1734 1069 1313 
Q 1069 891 1326 650 
Q 1584 409 2034 409 
Q 2484 409 2743 651 
Q 3003 894 3003 1313 
Q 3003 1734 2745 1975 
Q 2488 2216 2034 2216 
z
M 1403 2484 
Q 997 2584 770 2862 
Q 544 3141 544 3541 
Q 544 4100 942 4425 
Q 1341 4750 2034 4750 
Q 2731 4750 3128 4425 
Q 3525 4100 3525 3541 
Q 3525 3141 3298 2862 
Q 3072 2584 2669 2484 
Q 3125 2378 3379 2068 
Q 3634 1759 3634 1313 
Q 3634 634 3220 271 
Q 2806 -91 2034 -91 
Q 1263 -91 848 271 
Q 434 634 434 1313 
Q 434 1759 690 2068 
Q 947 2378 1403 2484 
z
M 1172 3481 
Q 1172 3119 1398 2916 
Q 1625 2713 2034 2713 
Q 2441 2713 2670 2916 
Q 2900 3119 2900 3481 
Q 2900 3844 2670 4047 
Q 2441 4250 2034 4250 
Q 1625 4250 1398 4047 
Q 1172 3844 1172 3481 
z
" transform="scale(0.015625)"/>
      </defs>
      <use xlink:href="#DejaVuSans-16"/>
      <use xlink:href="#DejaVuSans-11" transform="translate(63.625 0)"/>
      <use xlink:href="#DejaVuSans-1b" transform="translate(95.40625 0)"/>
     </g>
    </g>
    <g id="patch_71">
     <path d="M 625.78125 87.760781 
L 645.78125 87.760781 
L 645.78125 80.760781 
L 625.78125 80.760781 
z
" style="fill: #d62728"/>
    </g>
    <g id="text_19">
     <!-- 3.9 -->
     <g style="fill: #ffffff" transform="translate(653.78125 87.760781) scale(0.1 -0.1)">
      <defs>
       <path id="DejaVuSans-1c" d="M 703 97 
L 703 672 
Q 941 559 1184 500 
Q 1428 441 1663 441 
Q 2288 441 2617 861 
Q 2947 1281 2994 2138 
Q 2813 1869 2534 1725 
Q 2256 1581 1919 1581 
Q 1219 1581 811 2004 
Q 403 2428 403 3163 
Q 403 3881 828 4315 
Q 1253 4750 1959 4750 
Q 2769 4750 3195 4129 
Q 3622 3509 3622 2328 
Q 3622 1225 3098 567 
Q 2575 -91 1691 -91 
Q 1453 -91 1209 -44 
Q 966 3 703 97 
z
M 1959 2075 
Q 2384 2075 2632 2365 
Q 2881 2656 2881 3163 
Q 2881 3666 2632 3958 
Q 2384 4250 1959 4250 
Q 1534 4250 1286 3958 
Q 1038 3666 1038 3163 
Q 1038 2656 1286 2365 
Q 1534 2075 1959 2075 
z
" transform="scale(0.015625)"/>
      </defs>
      <use xlink:href="#DejaVuSans-16"/>
      <use xlink:href="#DejaVuSans-11" transform="translate(63.625 0)"/>
      <use xlink:href="#DejaVuSans-1c" transform="translate(95.40625 0)"/>
     </g>
    </g>
    <g id="patch_72">
     <path d="M 625.78125 102.761562 
L 645.78125 102.761562 
L 645.78125 95.761562 
L 625.78125 95.761562 
z
" style="fill: #9467bd"/>
    </g>
    <g id="text_20">
     <!-- 3.10 -->
     <g style="fill: #ffffff" transform="translate(653.78125 102.761562) scale(0.1 -0.1)">
      <use xlink:href="#DejaVuSans-16"/>
      <use xlink:href="#DejaVuSans-11" transform="translate(63.625 0)"/>
      <use xlink:href="#DejaVuSans-14" transform="translate(95.40625 0)"/>
      <use xlink:href="#DejaVuSans-13" transform="translate(159.03125 0)"/>
     </g>
    </g>
    <g id="patch_73">
     <path d="M 625.78125 117.762344 
L 645.78125 117.762344 
L 645.78125 110.762344 
L 625.78125 110.762344 
z
" style="fill: #8c564b"/>
    </g>
    <g id="text_21">
     <!-- 3.11 -->
     <g style="fill: #ffffff" transform="translate(653.78125 117.762344) scale(0.1 -0.1)">
      <use xlink:href="#DejaVuSans-16"/>
      <use xlink:href="#DejaVuSans-11" transform="translate(63.625 0)"/>
      <use xlink:href="#DejaVuSans-14" transform="translate(95.40625 0)"/>
      <use xlink:href="#DejaVuSans-14" transform="translate(159.03125 0)"/>
     </g>
    </g>
    <g id="patch_74">
     <path d="M 625.78125 132.763125 
L 645.78125 132.763125 
L 645.78125 125.763125 
L 625.78125 125.763125 
z
" style="fill: #e377c2"/>
    </g>
    <g id="text_22">
     <!-- 3.12 -->
     <g style="fill: #ffffff" transform="translate(653.78125 132.763125) scale(0.1 -0.1)">
      <use xlink:href="#DejaVuSans-16"/>
      <use xlink:href="#DejaVuSans-11" transform="translate(63.625 0)"/>
      <use xlink:href="#DejaVuSans-14" transform="translate(95.40625 0)"/>
      <use xlink:href="#DejaVuSans-15" transform="translate(159.03125 0)"/>
     </g>
    </g>
    <g id="patch_75">
     <path d="M 625.78125 147.763906 
L 645.78125 147.763906 
L 645.78125 140.763906 
L 625.78125 140.763906 
z
" style="fill: #7f7f7f"/>
    </g>
    <g id="text_23">
     <!-- 3.13 -->
     <g style="fill: #ffffff" transform="translate(653.78125 147.763906) scale(0.1 -0.1)">
      <use xlink:href="#DejaVuSans-16"/>
      <use xlink:href="#DejaVuSans-11" transform="translate(63.625 0)"/>
      <use xlink:href="#DejaVuSans-14" transform="translate(95.40625 0)"/>
      <use xlink:href="#DejaVuSans-16" transform="translate(159.03125 0)"/>
     </g>
    </g>
    <g id="patch_76">
     <path d="M 625.78125 162.764687 
L 645.78125 162.764687 
L 645.78125 155.764687 
L 625.78125 155.764687 
z
" style="fill: #bcbd22"/>
    </g>
    <g id="text_24">
     <!-- 3.14 -->
     <g style="fill: #ffffff" transform="translate(653.78125 162.764687) scale(0.1 -0.1)">
      <defs>
       <path id="DejaVuSans-17" d="M 2419 4116 
L 825 1625 
L 2419 1625 
L 2419 4116 
z
M 2253 4666 
L 3047 4666 
L 3047 1625 
L 3713 1625 
L 3713 1100 
L 3047 1100 
L 3047 0 
L 2419 0 
L 2419 1100 
L 313 1100 
L 313 1709 
L 2253 4666 
z
" transform="scale(0.015625)"/>
      </defs>
      <use xlink:href="#DejaVuSans-16"/>
      <use xlink:href="#DejaVuSans-11" transform="translate(63.625 0)"/>
      <use xlink:href="#DejaVuSans-14" transform="translate(95.40625 0)"/>
      <use xlink:href="#DejaVuSans-17" transform="translate(159.03125 0)"/>
     </g>
    </g>
    <g id="patch_77">
     <path d="M 625.78125 177.765469 
L 645.78125 177.765469 
L 645.78125 170.765469 
L 625.78125 170.765469 
z
" style="fill: #17becf"/>
    </g>
    <g id="text_25">
     <!-- Unknown -->
     <g style="fill: #ffffff" transform="translate(653.78125 177.765469) scale(0.1 -0.1)">
      <defs>
       <path id="DejaVuSans-38" d="M 556 4666 
L 1191 4666 
L 1191 1831 
Q 1191 1081 1462 751 
Q 1734 422 2344 422 
Q 2950 422 3222 751 
Q 3494 1081 3494 1831 
L 3494 4666 
L 4128 4666 
L 4128 1753 
Q 4128 841 3676 375 
Q 3225 -91 2344 -91 
Q 1459 -91 1007 375 
Q 556 841 556 1753 
L 556 4666 
z
" transform="scale(0.015625)"/>
      </defs>
      <use xlink:href="#DejaVuSans-38"/>
      <use xlink:href="#DejaVuSans-51" transform="translate(73.1875 0)"/>
      <use xlink:href="#DejaVuSans-4e" transform="translate(136.5625 0)"/>
      <use xlink:href="#DejaVuSans-51" transform="translate(194.46875 0)"/>
      <use xlink:href="#DejaVuSans-52" transform="translate(257.84375 0)"/>
      <use xlink:href="#DejaVuSans-5a" transform="translate(319.03125 0)"/>
      <use xlink:href="#DejaVuSans-51" transform="translate(400.8125 0)"/>
     </g>
    </g>
   </g>
  </g>
 </g>
 <defs>
  <clipPath id="pc0b85cf45f">
   <rect x="43.72" y="26.16" width="665.48" height="377.717656"/>
  </clipPath>
 </defs>
</svg>
